<svg xmlns="http://www.w3.org/2000/svg" xmlns:xlink="http://www.w3.org/1999/xlink" viewBox="0 0 229 229"><defs><style>.cls-1,.cls-10,.cls-11,.cls-5,.cls-6,.cls-8,.cls-9{fill:none;}.cls-2,.cls-3,.cls-4{font-size:16.67px;font-family:Impact;}.cls-2{fill:#fff;}.cls-3{fill:#8e8a8a;}.cls-5,.cls-6{stroke:#000;}.cls-10,.cls-11,.cls-5,.cls-6,.cls-8,.cls-9{stroke-miterlimit:10;}.cls-5{stroke-width:4px;}.cls-6{stroke-width:3px;}.cls-7{clip-path:url(#clip-path);}.cls-10,.cls-11,.cls-8,.cls-9{stroke:#1d1d1b;}.cls-8{stroke-width:1.24px;}.cls-9{stroke-width:0.97px;}.cls-10{stroke-width:0.97px;}.cls-11{stroke-width:1.21px;}.cls-12{fill:#1d1d1b;}</style><clipPath id="clip-path"><rect class="cls-1" x="4.08" y="52.69" width="220.3" height="103.51"/></clipPath></defs><g id="Layer_2" data-name="Layer 2"><g id="INNER_CIRCLE" data-name="INNER CIRCLE"><rect x="70.75" y="158.25" width="93.06" height="18.06"/><text class="cls-2" transform="translate(74.69 174.21)">NORTH YEAST </text><text class="cls-3" transform="translate(86.96 193.04)">BREWING</text><text class="cls-4" transform="translate(87.74 191.26)">BREWING</text></g><g id="OUTER_CIRCLE" data-name="OUTER CIRCLE"><path class="cls-5" d="M18.26,56.2a112.54,112.54,0,0,1,192.47,0"/><path class="cls-5" d="M222.23,82A112.5,112.5,0,1,1,6.81,81.86"/><path class="cls-6" d="M26.49,56.2a105.58,105.58,0,0,1,176,0"/><path class="cls-6" d="M215,82a105.56,105.56,0,1,1-200.9,0"/></g><g id="ANGEL"><g id="Artwork_2" data-name="Artwork 2"><g class="cls-7"><g class="cls-7"><polyline class="cls-8" points="88.26 85 4.93 78.44 7.18 59.28 91.36 59.77"/><path class="cls-9" d="M89.84,71.4H4.93c-.21,0-.37-.1-.37-.22s.16-.22.37-.22H89.84"/><path class="cls-10" d="M90.88,63.17H6c-.2,0-.37-.1-.37-.22s.17-.22.37-.22H90.88"/><path class="cls-11" d="M22.57,81.15h0a.22.22,0,0,1-.21-.22v-22a.21.21,0,0,1,.21-.21h0a.21.21,0,0,1,.21.21v22A.22.22,0,0,1,22.57,81.15Z"/><rect class="cls-11" x="33.91" y="58.48" width="0.42" height="23.33" rx="0.21"/><path class="cls-11" d="M43.64,82.22h0a.22.22,0,0,1-.21-.22V58.3a.22.22,0,0,1,.21-.22h0a.22.22,0,0,1,.21.22V82A.22.22,0,0,1,43.64,82.22Z"/><path class="cls-11" d="M51.15,83.45h0a.21.21,0,0,1-.21-.22V58.42a.21.21,0,0,1,.21-.22h0a.21.21,0,0,1,.21.22V83.23A.21.21,0,0,1,51.15,83.45Z"/><path class="cls-11" d="M58,83.93h-.2a.21.21,0,0,1-.21-.21V58.65a.22.22,0,0,1,.21-.22H58a.21.21,0,0,1,.2.22V83.72A.2.2,0,0,1,58,83.93Z"/><path class="cls-11" d="M63.49,84.54h-.2a.21.21,0,0,1-.21-.21V59a.22.22,0,0,1,.21-.22h.2a.21.21,0,0,1,.2.22V84.33A.2.2,0,0,1,63.49,84.54Z"/><path class="cls-11" d="M68.94,84.74h-.2a.22.22,0,0,1-.21-.22V58.76a.22.22,0,0,1,.21-.22h.2a.21.21,0,0,1,.2.22V84.52A.21.21,0,0,1,68.94,84.74Z"/><path class="cls-11" d="M72.41,85h0a.21.21,0,0,1-.21-.22V59a.21.21,0,0,1,.21-.21h0a.21.21,0,0,1,.21.21V84.73A.21.21,0,0,1,72.41,85Z"/><path class="cls-11" d="M76,85.19h0a.22.22,0,0,1-.21-.22V59a.22.22,0,0,1,.21-.22h0a.22.22,0,0,1,.21.22V85A.22.22,0,0,1,76,85.19Z"/><rect class="cls-11" x="82.86" y="59.27" width="0.42" height="26.62" rx="0.21"/><path class="cls-11" d="M86.22,86.28h0a.22.22,0,0,1-.21-.22V59.49a.22.22,0,0,1,.21-.22h0a.22.22,0,0,1,.21.22V86.06A.22.22,0,0,1,86.22,86.28Z"/><path class="cls-11" d="M88.3,86.22h0a.22.22,0,0,1-.19-.24l2.54-26.84a.21.21,0,0,1,.23-.2.22.22,0,0,1,.19.24L88.53,86A.21.21,0,0,1,88.3,86.22Z"/><path class="cls-11" d="M79.08,85.57h0a.21.21,0,0,1-.21-.22V59.16a.21.21,0,0,1,.21-.21h0a.21.21,0,0,1,.21.21V85.35A.21.21,0,0,1,79.08,85.57Z"/><polyline class="cls-8" points="140.2 85.66 223.53 79.1 221.29 59.94 137.1 60.44"/><path class="cls-9" d="M138.62,72.06h84.92c.2,0,.37-.1.37-.22s-.17-.22-.37-.22H138.62"/><path class="cls-10" d="M137.58,63.83h84.91c.21,0,.38-.1.38-.22s-.17-.22-.38-.22H137.58"/><path class="cls-11" d="M205.9,81.81h0a.21.21,0,0,0,.21-.21v-22a.21.21,0,0,0-.21-.21h0a.21.21,0,0,0-.21.21v22A.21.21,0,0,0,205.9,81.81Z"/><rect class="cls-11" x="194.13" y="59.14" width="0.42" height="23.33" rx="0.21"/><path class="cls-11" d="M184.83,82.88h0a.21.21,0,0,0,.21-.22V59a.21.21,0,0,0-.21-.21h0a.21.21,0,0,0-.21.21v23.7A.21.21,0,0,0,184.83,82.88Z"/><rect class="cls-11" x="177.1" y="58.86" width="0.42" height="25.24" rx="0.21"/><path class="cls-11" d="M170.43,84.59h.19a.21.21,0,0,0,.21-.21V59.31a.21.21,0,0,0-.21-.22h-.19a.21.21,0,0,0-.21.22V84.38A.21.21,0,0,0,170.43,84.59Z"/><path class="cls-11" d="M165,85.2h.19a.21.21,0,0,0,.21-.21V59.61a.21.21,0,0,0-.21-.22H165a.21.21,0,0,0-.21.22V85A.21.21,0,0,0,165,85.2Z"/><path class="cls-11" d="M159.53,85.4h.19a.21.21,0,0,0,.21-.22V59.42a.21.21,0,0,0-.21-.22h-.19a.21.21,0,0,0-.21.22V85.18A.21.21,0,0,0,159.53,85.4Z"/><path class="cls-11" d="M156.05,85.61h0a.22.22,0,0,0,.21-.22V59.63a.21.21,0,0,0-.21-.21h0a.21.21,0,0,0-.21.21V85.39A.22.22,0,0,0,156.05,85.61Z"/><path class="cls-11" d="M152.44,85.85h0a.21.21,0,0,0,.21-.22v-26a.21.21,0,0,0-.21-.22h0a.21.21,0,0,0-.21.22v26A.21.21,0,0,0,152.44,85.85Z"/><rect class="cls-11" x="145.18" y="59.93" width="0.42" height="26.62" rx="0.21"/><path class="cls-11" d="M142.25,86.94h0a.21.21,0,0,0,.21-.22V60.15a.21.21,0,0,0-.21-.22h0a.21.21,0,0,0-.21.22V86.72A.21.21,0,0,0,142.25,86.94Z"/><path class="cls-11" d="M140.16,86.88h0a.22.22,0,0,0,.19-.24L137.82,59.8a.22.22,0,0,0-.23-.2.21.21,0,0,0-.19.24l2.53,26.84A.21.21,0,0,0,140.16,86.88Z"/><path class="cls-11" d="M149.38,86.23h0a.22.22,0,0,0,.21-.22V59.82a.21.21,0,0,0-.21-.21h0a.21.21,0,0,0-.21.21V86A.22.22,0,0,0,149.38,86.23Z"/><path class="cls-12" d="M138.2,91h.07q-1.77-19.14-3.55-38.27H94.13q-1.78,19-3.56,38.05h.08c-.06.76-.1,1.53-.1,2.31,0,14.31,10.69,25.91,23.87,25.91s23.86-11.6,23.86-25.91c0-.7,0-1.4-.08-2.09"/><path class="cls-12" d="M122.08,152c-.72,1.55-4.07,2.52-7.46,2.69h-.15c-3.27-.17-6.5-1.07-7.38-2.52-8.19.33-13.86,1.06-13.86,1.89,0,1.16,10.88,2.1,24.29,2.1s24.29-.94,24.29-2.1-8.5-1.87-19.73-2.06"/><path class="cls-12" d="M120.75,149.21c-5-5.67,0-29.8,0-29.8H120a30.06,30.06,0,0,1-5.49.51h-.16a30.06,30.06,0,0,1-5.49-.51h-.77s5,24.13,0,29.8c-2.5,2.82,1.85,4.67,6.27,4.9h.14c4.42-.23,8.77-2.08,6.26-4.9"/></g></g></g></g></g></svg>