<svg xmlns="http://www.w3.org/2000/svg" xmlns:xlink="http://www.w3.org/1999/xlink" viewBox="0 0 229 229"><defs><style>.cls-1,.cls-10,.cls-12,.cls-13,.cls-7,.cls-8,.cls-9{fill:none;}.cls-11,.cls-2,.cls-5{fill:#fff;}.cls-10,.cls-12,.cls-13,.cls-2,.cls-7,.cls-8,.cls-9{stroke:#fff;stroke-miterlimit:10;}.cls-3,.cls-4,.cls-5{font-size:16.67px;font-family:Impact;}.cls-3{fill:#142127;}.cls-4{fill:gray;}.cls-6{clip-path:url(#clip-path);}.cls-7{stroke-width:1.25px;}.cls-8{stroke-width:0.97px;}.cls-9{stroke-width:0.97px;}.cls-10{stroke-width:1.21px;}.cls-12{stroke-width:3px;}.cls-13{stroke-width:4px;}</style><clipPath id="clip-path"><rect class="cls-1" x="4.28" y="51.7" width="224.72" height="101.57"/></clipPath></defs><g id="Layer_2" data-name="Layer 2"><g id="inner_circle" data-name="inner circle"><rect class="cls-2" x="72.75" y="156.25" width="93.06" height="18.06"/><text id="NORTH_YEAST" data-name="NORTH YEAST" class="cls-3" transform="translate(77.8 171.18)">NORTH YEAST </text><text class="cls-4" transform="translate(86.96 193.04)">BREWING</text><text class="cls-5" transform="translate(87.74 192.26)">BREWING</text><g id="angel"><g class="cls-6"><g class="cls-6"><polyline class="cls-7" points="90.15 83.4 5.14 76.97 7.43 58.16 93.31 58.65"/><path class="cls-8" d="M91.76,70.06H5.14c-.21,0-.38-.1-.38-.22s.17-.21.38-.21H91.76"/><path class="cls-9" d="M92.82,62H6.21c-.21,0-.38-.1-.38-.22s.17-.21.38-.21H92.82"/><rect class="cls-10" x="22.92" y="57.57" width="0.43" height="22.05" rx="0.21"/><rect class="cls-10" x="34.71" y="57.38" width="0.43" height="22.9" rx="0.21"/><rect class="cls-10" x="44.41" y="56.99" width="0.43" height="23.68" rx="0.21"/><rect class="cls-10" x="52.08" y="57.11" width="0.43" height="24.77" rx="0.21"/><rect class="cls-10" x="58.91" y="57.33" width="0.62" height="25.02" rx="0.21"/><rect class="cls-10" x="64.46" y="57.63" width="0.62" height="25.33" rx="0.21"/><rect class="cls-10" x="70.02" y="57.44" width="0.62" height="25.7" rx="0.21"/><rect class="cls-10" x="73.76" y="57.65" width="0.43" height="25.7" rx="0.21"/><rect class="cls-10" x="77.45" y="57.67" width="0.43" height="25.91" rx="0.21"/><rect class="cls-10" x="84.64" y="58.15" width="0.43" height="26.13" rx="0.21"/><rect class="cls-10" x="87.84" y="58.15" width="0.43" height="26.51" rx="0.21"/><path class="cls-10" d="M90.19,84.6h0a.21.21,0,0,1-.19-.23L92.58,58a.22.22,0,0,1,.24-.19.22.22,0,0,1,.19.23L90.43,84.41A.23.23,0,0,1,90.19,84.6Z"/><rect class="cls-10" x="80.57" y="57.84" width="0.43" height="26.13" rx="0.21"/><polyline class="cls-7" points="143.13 84.05 228.13 77.62 225.84 58.81 139.97 59.3"/><path class="cls-8" d="M141.52,70.7h86.62c.21,0,.38-.09.38-.21s-.17-.22-.38-.22H141.52"/><path class="cls-9" d="M140.46,62.63h86.61c.21,0,.38-.1.38-.22s-.17-.21-.38-.21H140.46"/><rect class="cls-10" x="209.93" y="58.22" width="0.43" height="22.05" rx="0.21"/><rect class="cls-10" x="198.14" y="58.03" width="0.43" height="22.9" rx="0.21"/><rect class="cls-10" x="188.44" y="57.64" width="0.43" height="23.68" rx="0.21"/><rect class="cls-10" x="180.77" y="57.76" width="0.43" height="24.77" rx="0.21"/><rect class="cls-10" x="173.75" y="57.98" width="0.62" height="25.02" rx="0.21"/><rect class="cls-10" x="168.19" y="58.28" width="0.62" height="25.33" rx="0.21"/><rect class="cls-10" x="162.63" y="58.09" width="0.62" height="25.7" rx="0.21"/><rect class="cls-10" x="159.09" y="58.3" width="0.43" height="25.7" rx="0.21"/><rect class="cls-10" x="155.4" y="58.32" width="0.43" height="25.91" rx="0.21"/><rect class="cls-10" x="148.21" y="58.8" width="0.43" height="26.13" rx="0.21"/><rect class="cls-10" x="145" y="58.8" width="0.43" height="26.51" rx="0.21"/><path class="cls-10" d="M143.09,85.25h0a.22.22,0,0,0,.19-.23L140.7,58.67a.22.22,0,0,0-.24-.19.21.21,0,0,0-.19.23l2.58,26.35A.23.23,0,0,0,143.09,85.25Z"/><rect class="cls-10" x="152.28" y="58.49" width="0.43" height="26.13" rx="0.21"/><path class="cls-11" d="M141.09,89.25h.07q-1.82-18.78-3.62-37.55H96.13L92.5,89h.09c-.07.74-.1,1.5-.1,2.27,0,14,10.9,25.42,24.34,25.42s24.35-11.38,24.35-25.42c0-.7,0-1.38-.09-2.06"/><path class="cls-11" d="M124.64,149.19c-.73,1.52-4.15,2.47-7.6,2.63h-.16c-3.34-.16-6.63-1-7.52-2.47-8.36.33-14.14,1-14.14,1.86,0,1.14,11.09,2.06,24.77,2.06s24.78-.92,24.78-2.06-8.67-1.84-20.13-2"/><path class="cls-11" d="M123.29,146.41c-5.14-5.56,0-29.25,0-29.25h-.77a31.38,31.38,0,0,1-5.61.51h-.16a31.19,31.19,0,0,1-5.6-.51h-.78s5.14,23.69,0,29.25c-2.56,2.77,1.88,4.58,6.39,4.81h.14c4.51-.23,8.95-2,6.39-4.81"/></g></g></g></g><g id="The_outer_circle" data-name="The outer circle"><path class="cls-12" d="M215,82a105.56,105.56,0,1,1-200.9,0"/><path class="cls-12" d="M26.49,56.2a105.58,105.58,0,0,1,176,0"/><path class="cls-13" d="M222.23,82A112.5,112.5,0,1,1,6.81,81.86"/><path class="cls-13" d="M18.26,56.2a112.54,112.54,0,0,1,192.47,0"/></g></g></svg>